<svg id="Capa_1" data-name="Capa 1" xmlns="http://www.w3.org/2000/svg" viewBox="0 0 24 24"><title>crown_1</title><path d="M21.52,17.25H2.26a.31.31,0,0,0-.27.31.32.32,0,0,0,.27.32v2.3H21.52V17.86a.32.32,0,0,0,.23-.31A.31.31,0,0,0,21.52,17.25Z"/><path d="M22.91,5.3a1.09,1.09,0,0,0-1.09,1.09,1.07,1.07,0,0,0,.61,1C21.64,9,19.85,11.89,17,11.89c-3,0-4.44-4-4.95-5.91a1.07,1.07,0,1,0-.51,0c-.55,1.94-2,5.91-4.42,5.91s-4.42-3-5.42-4.6a1.08,1.08,0,0,0,.49-.9A1.09,1.09,0,1,0,1.09,7.48h.12l1,8.05a.33.33,0,0,0-.27.32.31.31,0,0,0,.27.31H21.52a.31.31,0,0,0,.23-.3.32.32,0,0,0-.23-.31l1.25-8.06h.14a1.09,1.09,0,0,0,0-2.18Z"/></svg>