<svg id="Capa_1" data-name="Capa 1" xmlns="http://www.w3.org/2000/svg" viewBox="0 0 24 24"><title>crown_2</title><path d="M21.62,20.6H2.17V18.19a.78.78,0,0,1,0-1.16v-.2H21.54l0,.18a.8.8,0,0,1,.27.6.78.78,0,0,1-.22.55Zm-18.49-1H20.66V17.79H3.13Z"/><path d="M21.14,16.47H2.22l0-.18a.78.78,0,0,1-.29-.61.76.76,0,0,1,.23-.54l-.92-7a1.53,1.53,0,1,1,1.5-.55c.87,1.38,2.7,3.85,4.59,3.85S10.49,8,11,6.48a1.53,1.53,0,1,1,1.65,0c.5,1.74,1.76,4.91,4.18,4.91s3.81-2.18,4.6-3.71A1.54,1.54,0,0,1,21,6.61a1.53,1.53,0,1,1,1.8,1.5l-1.09,7.06a.83.83,0,0,1,.18.51.8.8,0,0,1-.22.56v.22Zm-18-1H20.63l1-6.25c-1,1.52-2.58,3.11-4.8,3.11-2.84,0-4.31-3-5-5.28-.73,2.25-2.15,5.28-4.48,5.28-2.07,0-3.91-2.08-5.06-3.77ZM1.52,6.05A.56.56,0,0,0,1,6.61a.57.57,0,0,0,.56.57l.21,0,.11-.07a.55.55,0,0,0,.25-.47A.56.56,0,0,0,1.52,6.05ZM22.31,7.16h.1A.59.59,0,0,0,23,6.61a.57.57,0,1,0-.81.51ZM11.81,4.64a.56.56,0,0,0-.56.57.56.56,0,0,0,.42.54l.13,0,.14,0a.58.58,0,0,0,.44-.55A.57.57,0,0,0,11.81,4.64Z"/></svg>