<svg id="Capa_1" data-name="Capa 1" xmlns="http://www.w3.org/2000/svg" viewBox="0 0 24 24"><title>dashboard</title><path d="M7.32,10.5H4.82a.75.75,0,0,1,0-1.5h2.5a.75.75,0,0,1,0,1.5Z"/><path d="M19.32,10.5h-7.5a.75.75,0,0,1,0-1.5h7.5a.75.75,0,0,1,0,1.5Z"/><path d="M7.32,14.5H4.82a.75.75,0,0,1,0-1.5h2.5a.75.75,0,0,1,0,1.5Z"/><path d="M19.32,14.5h-7.5a.75.75,0,0,1,0-1.5h7.5a.75.75,0,0,1,0,1.5Z"/><path d="M7.32,18.5H4.82a.75.75,0,0,1,0-1.5h2.5a.75.75,0,0,1,0,1.5Z"/><path d="M19.32,18.5h-7.5a.75.75,0,0,1,0-1.5h7.5a.75.75,0,0,1,0,1.5Z"/><path d="M21.25,23H2.75A2.75,2.75,0,0,1,0,20.25V3.75A2.75,2.75,0,0,1,2.75,1h18.5A2.75,2.75,0,0,1,24,3.75v16.5A2.75,2.75,0,0,1,21.25,23ZM2.75,2.5A1.25,1.25,0,0,0,1.5,3.75v16.5A1.25,1.25,0,0,0,2.75,21.5h18.5a1.25,1.25,0,0,0,1.25-1.25V3.75A1.25,1.25,0,0,0,21.25,2.5Z"/><path d="M23.25,6H.75a.75.75,0,0,1,0-1.5h22.5a.75.75,0,0,1,0,1.5Z"/></svg>