<svg id="Capa_1" data-name="Capa 1" xmlns="http://www.w3.org/2000/svg" viewBox="0 0 24 24"><title>diamond_1</title><polygon points="2.1 9.13 10.89 20.04 6.91 9.13 2.1 9.13"/><polygon points="7.69 9.13 11.94 20.75 16.27 9.13 7.69 9.13"/><polygon points="12.88 20.32 21.89 9.13 17.05 9.13 12.88 20.32"/><polygon points="18.46 3.25 12.77 3.25 16.67 8.04 18.46 3.25"/><polygon points="16.01 8.39 12 3.46 7.99 8.39 16.01 8.39"/><polygon points="11.23 3.25 5.54 3.25 7.3 8.08 11.23 3.25"/><polygon points="4.93 3.71 2 8.39 6.64 8.39 4.93 3.71"/><polygon points="22 8.39 19.07 3.71 17.32 8.39 22 8.39"/></svg>