<svg id="Capa_1" data-name="Capa 1" xmlns="http://www.w3.org/2000/svg" viewBox="0 0 24 24"><title>diamond_2</title><path d="M19.6,12.7l3.29-3.77a.42.42,0,0,0,0-.52L19.4,3A.41.41,0,0,0,19,2.85H5A.42.42,0,0,0,4.61,3L1.08,8.4a.16.16,0,0,0,0,.07.41.41,0,0,0,.07.46l1.78,2,4.24,4.84L11.68,21a.42.42,0,0,0,.64,0l4.84-5.52Zm-3.08,2.21L12.94,19l2.91-9.91h5.78L19,12.13Zm-13-4.5L2.37,9.08H8.15L11.06,19,7.78,15.25M3.54,10.41l4.24,4.84m-5.55-7L5,4.06,7.7,8.22ZM5.76,3.7h5.45L8.48,7.85ZM12,4.06l2.73,4.16H9.27Zm0,15.09L9.05,9.08H15ZM15.52,7.86,12.79,3.7h5.46Zm.8.36,2.73-4.16,2.73,4.16Z"/></svg>