<svg id="Capa_1" data-name="Capa 1" xmlns="http://www.w3.org/2000/svg" viewBox="0 0 24 24"><defs><style>.cls-1{fill:#e5646e;}.cls-2{fill:#f2f2f6;}.cls-3{fill:#db4655;}.cls-4{fill:#5055a0;}.cls-5{fill:#3f3f8f;}.cls-6{fill:#fff;}.cls-7{fill:#e1e1e6;}</style></defs><title>en</title><path class="cls-1" d="M23.23,4.26H12.39l-12,8.28v6.88H23.23L24,19V17.53l-.5-.48V15.69l.5-.37V13.11l-.45-.44V11.28l.45-.39V8.68l-.45-.4V7.06L24,6.47V5a.77.77,0,0,0-.77-.77Z"/><path class="cls-2" d="M12,6.47H24V8.68H12Z"/><path class="cls-2" d="M12,10.89l.39,2.22H24V10.89Z"/><path class="cls-3" d="M.77,16.65V12.7L0,13.11v2.21l.33.28v1.45L0,17.53V19a.77.77,0,0,0,.77.77H23.23A.77.77,0,0,0,24,19H3.1A2.32,2.32,0,0,1,.77,16.65Z"/><path class="cls-4" d="M12.39,4.26H.77L.28,5l.49,8.08H12.39Z"/><path class="cls-5" d="M.77,4.26A.77.77,0,0,0,0,5v8.08H.77Z"/><path class="cls-6" d="M1.55,6a.39.39,0,0,1-.39-.38.38.38,0,0,1,.39-.39h0a.39.39,0,1,1,0,.77Z"/><path class="cls-6" d="M1.55,9.08a.39.39,0,0,1-.39-.39.38.38,0,0,1,.39-.38h0a.39.39,0,1,1,0,.77Z"/><path class="cls-6" d="M1.55,12.18a.4.4,0,0,1-.39-.39.39.39,0,0,1,.39-.39h0a.39.39,0,0,1,0,.78Z"/><path class="cls-2" d="M1.55,7.53a.39.39,0,0,1-.39-.38.38.38,0,0,1,.39-.39h0a.39.39,0,1,1,0,.77Z"/><path class="cls-2" d="M1.55,10.63a.39.39,0,0,1,0-.78h0a.39.39,0,0,1,.39.39A.38.38,0,0,1,1.55,10.63Z"/><path class="cls-6" d="M10.84,6a.39.39,0,0,1-.39-.38.38.38,0,0,1,.39-.39h0a.39.39,0,1,1,0,.77Z"/><path class="cls-6" d="M10.84,9.08a.39.39,0,0,1-.39-.39.38.38,0,0,1,.39-.38h0a.39.39,0,1,1,0,.77Z"/><path class="cls-6" d="M10.84,12.18a.4.4,0,0,1-.39-.39.39.39,0,0,1,.39-.39h0a.39.39,0,1,1,0,.78Z"/><path class="cls-2" d="M10.84,7.53a.39.39,0,0,1-.39-.38.38.38,0,0,1,.39-.39h0a.39.39,0,1,1,0,.77Z"/><path class="cls-2" d="M10.84,10.63a.39.39,0,0,1,0-.78h0a.39.39,0,0,1,.39.39.38.38,0,0,1-.39.39Z"/><path class="cls-2" d="M3.87,6a.39.39,0,0,1,0-.77h0a.39.39,0,1,1,0,.77Z"/><path class="cls-2" d="M3.87,9.08a.39.39,0,0,1,0-.77h0a.39.39,0,1,1,0,.77Z"/><path class="cls-2" d="M3.87,12.18a.39.39,0,0,1,0-.78h0a.39.39,0,1,1,0,.78Z"/><path class="cls-6" d="M3.87,7.53a.39.39,0,0,1,0-.77h0a.39.39,0,1,1,0,.77Z"/><path class="cls-6" d="M3.87,10.63a.38.38,0,0,1-.38-.39.39.39,0,0,1,.38-.39h0a.39.39,0,0,1,.39.39A.38.38,0,0,1,3.87,10.63Z"/><path class="cls-6" d="M2.71,6.76a.39.39,0,1,1,0-.78h0a.39.39,0,0,1,0,.78Z"/><path class="cls-6" d="M2.71,9.85a.39.39,0,1,1,0-.77h0a.39.39,0,1,1,0,.77Z"/><path class="cls-2" d="M2.71,8.31a.39.39,0,0,1,0-.78h0a.39.39,0,0,1,0,.78Z"/><path class="cls-2" d="M2.71,11.4a.39.39,0,1,1,0-.77h0a.39.39,0,1,1,0,.77Z"/><path class="cls-6" d="M6.2,6a.39.39,0,0,1,0-.77h0A.39.39,0,0,1,6.2,6Z"/><path class="cls-6" d="M6.2,9.08a.38.38,0,0,1-.39-.39.38.38,0,0,1,.38-.38h0a.39.39,0,0,1,0,.77Z"/><path class="cls-6" d="M6.2,12.18a.39.39,0,0,1,0-.78h0a.39.39,0,0,1,0,.78Z"/><path class="cls-2" d="M6.2,7.53a.39.39,0,1,1,0-.77h0a.39.39,0,0,1,0,.77Z"/><path class="cls-2" d="M6.2,10.63a.38.38,0,0,1-.39-.39.39.39,0,0,1,.38-.39h0a.39.39,0,0,1,.38.39.38.38,0,0,1-.38.39Z"/><path class="cls-2" d="M5,6.76A.39.39,0,0,1,5,6H5a.39.39,0,0,1,0,.78Z"/><path class="cls-2" d="M5,9.85a.39.39,0,1,1,0-.77H5a.39.39,0,0,1,0,.77Z"/><path class="cls-6" d="M5,8.31a.39.39,0,0,1,0-.78H5a.39.39,0,0,1,0,.78Z"/><path class="cls-6" d="M5,11.4a.39.39,0,0,1,0-.77H5a.39.39,0,0,1,0,.77Z"/><path class="cls-2" d="M8.52,6a.39.39,0,1,1,0-.77h0a.39.39,0,0,1,0,.77Z"/><path class="cls-2" d="M8.52,9.08a.38.38,0,0,1-.39-.39.38.38,0,0,1,.38-.38h0a.39.39,0,0,1,0,.77Z"/><path class="cls-2" d="M8.52,12.18a.39.39,0,0,1,0-.78h0a.39.39,0,0,1,0,.78Z"/><path class="cls-6" d="M8.52,7.53a.39.39,0,1,1,0-.77h0a.39.39,0,0,1,0,.77Z"/><path class="cls-6" d="M8.52,10.63a.38.38,0,0,1-.39-.39.39.39,0,0,1,.38-.39h0a.39.39,0,0,1,.38.39.38.38,0,0,1-.38.39Z"/><path class="cls-6" d="M7.35,6.76a.39.39,0,0,1,0-.78h0a.39.39,0,1,1,0,.78Z"/><path class="cls-6" d="M7.35,9.85a.39.39,0,0,1,0-.77h0a.39.39,0,1,1,0,.77Z"/><path class="cls-2" d="M7.35,8.31a.39.39,0,0,1,0-.78h0a.39.39,0,1,1,0,.78Z"/><path class="cls-2" d="M7.35,11.4a.39.39,0,0,1,0-.77h0a.39.39,0,1,1,0,.77Z"/><path class="cls-2" d="M9.68,6.76a.4.4,0,0,1-.39-.39A.39.39,0,0,1,9.68,6h0a.39.39,0,1,1,0,.78Z"/><path class="cls-2" d="M9.68,9.85a.39.39,0,0,1-.39-.38.38.38,0,0,1,.39-.39h0a.39.39,0,1,1,0,.77Z"/><path class="cls-6" d="M9.68,8.31a.4.4,0,0,1-.39-.39.39.39,0,0,1,.39-.39h0a.39.39,0,0,1,0,.78Z"/><path class="cls-6" d="M9.68,11.4A.39.39,0,0,1,9.29,11a.38.38,0,0,1,.39-.39h0a.39.39,0,1,1,0,.77Z"/><path class="cls-2" d="M.14,16.89l.81.64H24V15.32H.77Z"/><path class="cls-7" d="M0,15.32v2.21H1a2.34,2.34,0,0,1-.18-.88V15.32Z"/></svg>