<svg id="Capa_1" data-name="Capa 1" xmlns="http://www.w3.org/2000/svg" viewBox="0 0 24 24"><defs><style>.cls-1{fill:#5055a0;}.cls-2{fill:#e5646e;}.cls-3{fill:#db4655;}.cls-4{fill:#3f3f8f;}.cls-5{fill:#f2f2f6;}.cls-6{fill:#e1e1e6;}</style></defs><title>fr</title><path class="cls-1" d="M8,4.26H.77L.49,5V18.62a.78.78,0,0,0,.78.77H8l.9-.81V5.42Z"/><path class="cls-2" d="M16,19.38h7.23L24,19V5a.77.77,0,0,0-.77-.77H16l-.9,1.16V18.58Z"/><path class="cls-3" d="M24,19H15.4l.6.77h7.23A.77.77,0,0,0,24,19Z"/><path class="cls-4" d="M.77,16.65V4.26A.77.77,0,0,0,0,5V19a.77.77,0,0,0,.77.77H8L8.6,19H3.1A2.32,2.32,0,0,1,.77,16.65Z"/><path class="cls-5" d="M8.78,19.39h6.61L16,19V4.26H8V19Z"/><path class="cls-6" d="M8,19h8v.77H8Z"/></svg>