<svg id="Capa_1" data-name="Capa 1" xmlns="http://www.w3.org/2000/svg" viewBox="0 0 24 24"><title>logout</title><path d="M23.92,10.62a1,1,0,0,0-.21-.33l-3-3a1,1,0,1,0-1.42,1.42L20.59,10H15a1,1,0,0,0,0,2h5.59l-1.3,1.29a1,1,0,0,0,0,1.42,1,1,0,0,0,1.42,0l3-3a1,1,0,0,0,.21-.33A1,1,0,0,0,23.92,10.62Z"/><path d="M17,14a1,1,0,0,0-1,1v5H12V4a1,1,0,0,0-.71-1L7.81,2H16V7a1,1,0,0,0,2,0V1a1,1,0,0,0-1-1H1L.9,0,.76,0A1.08,1.08,0,0,0,.47.17s0,0-.07,0l0,0A1,1,0,0,0,.12.54s0,0,0,.08A1,1,0,0,0,0,.85.27.27,0,0,1,0,.94S0,1,0,1V21a1,1,0,0,0,.8,1l10,2,.2,0a1,1,0,0,0,1-1V22h5a1,1,0,0,0,1-1V15A1,1,0,0,0,17,14Z"/></svg>