<svg id="Capa_1" data-name="Capa 1" xmlns="http://www.w3.org/2000/svg" viewBox="0 0 24 24"><title>settings</title><path d="M12.75,24h-1.5A2.21,2.21,0,0,1,9,21.79v-.51a9.4,9.4,0,0,1-1.51-.62L7.17,21a2.21,2.21,0,0,1-3.12,0L3,20a2.21,2.21,0,0,1,0-3.12l.36-.36A9.4,9.4,0,0,1,2.72,15H2.21A2.21,2.21,0,0,1,0,12.75v-1.5A2.21,2.21,0,0,1,2.21,9h.51a9.4,9.4,0,0,1,.62-1.51L3,7.17A2.21,2.21,0,0,1,3,4.05L4.05,3A2.21,2.21,0,0,1,7.17,3l.36.36A9.4,9.4,0,0,1,9,2.72V2.21A2.21,2.21,0,0,1,11.25,0h1.5A2.21,2.21,0,0,1,15,2.21v.51a9.4,9.4,0,0,1,1.51.62L16.83,3A2.21,2.21,0,0,1,20,3L21,4.05a2.21,2.21,0,0,1,0,3.12l-.36.36A9.4,9.4,0,0,1,21.28,9h.51A2.21,2.21,0,0,1,24,11.25v1.5A2.21,2.21,0,0,1,21.79,15h-.51a9.4,9.4,0,0,1-.62,1.51l.36.36A2.21,2.21,0,0,1,21,20L20,21a2.21,2.21,0,0,1-3.12,0l-.36-.36a9.4,9.4,0,0,1-1.51.62v.51A2.21,2.21,0,0,1,12.75,24Zm-5-4.82a7.94,7.94,0,0,0,2.15.89.7.7,0,0,1,.52.68v1a.8.8,0,0,0,.81.8h1.5a.8.8,0,0,0,.81-.8v-1a.7.7,0,0,1,.52-.68,7.94,7.94,0,0,0,2.15-.89.71.71,0,0,1,.86.11l.73.73A.81.81,0,0,0,19,20L20,19a.81.81,0,0,0,0-1.14l-.73-.73a.71.71,0,0,1-.11-.86,7.94,7.94,0,0,0,.89-2.15.7.7,0,0,1,.68-.52h1a.8.8,0,0,0,.8-.81v-1.5a.8.8,0,0,0-.8-.81h-1a.7.7,0,0,1-.68-.52,7.94,7.94,0,0,0-.89-2.15.71.71,0,0,1,.11-.86L20,6.18A.81.81,0,0,0,20,5L19,4a.81.81,0,0,0-1.14,0l-.73.73a.71.71,0,0,1-.86.11,7.94,7.94,0,0,0-2.15-.89.7.7,0,0,1-.52-.68v-1a.8.8,0,0,0-.81-.8h-1.5a.8.8,0,0,0-.81.8v1a.7.7,0,0,1-.52.68,7.94,7.94,0,0,0-2.15.89.71.71,0,0,1-.86-.11L6.18,4A.81.81,0,0,0,5,4L4,5A.81.81,0,0,0,4,6.18l.73.73a.71.71,0,0,1,.11.86,7.94,7.94,0,0,0-.89,2.15.7.7,0,0,1-.68.52h-1a.8.8,0,0,0-.8.81v1.5a.8.8,0,0,0,.8.81h1a.7.7,0,0,1,.68.52,7.94,7.94,0,0,0,.89,2.15.71.71,0,0,1-.11.86L4,17.82A.81.81,0,0,0,4,19L5,20a.81.81,0,0,0,1.14,0l.73-.73a.71.71,0,0,1,.86-.11Z"/><path d="M12,17.22A5.22,5.22,0,1,1,17.22,12,5.22,5.22,0,0,1,12,17.22Zm0-9A3.82,3.82,0,1,0,15.82,12,3.83,3.83,0,0,0,12,8.18Z"/></svg>