<svg id="Capa_1" data-name="Capa 1" xmlns="http://www.w3.org/2000/svg" viewBox="0 0 24 24"><title>users</title><style>path{fill:#777}</style><path d="M19.73,11.28A2.28,2.28,0,1,1,22,9,2.28,2.28,0,0,1,19.73,11.28Zm0-3.26a.93.93,0,0,0-1,1,1,1,0,0,0,2,0A.92.92,0,0,0,19.73,8Z"/><path d="M19.73,11.18A2.18,2.18,0,1,1,21.9,9,2.18,2.18,0,0,1,19.73,11.18Zm0-3.26A1,1,0,0,0,18.64,9a1.09,1.09,0,0,0,2.17,0A1,1,0,0,0,19.73,7.92Z"/><path d="M23.53,16.72a.62.62,0,0,1-.65-.65V15a1.56,1.56,0,0,0-1.53-1.53H18.09a.62.62,0,0,1-.64-.65.61.61,0,0,1,.64-.64h3.26A2.78,2.78,0,0,1,24.17,15v1.09a.68.68,0,0,1-.17.47A.64.64,0,0,1,23.53,16.72Z"/><path d="M23.53,16.62a.52.52,0,0,1-.55-.55V15a1.66,1.66,0,0,0-1.63-1.63H18.09a.55.55,0,0,1,0-1.09h3.26A2.69,2.69,0,0,1,24.07,15v1.09A.51.51,0,0,1,23.53,16.62Z"/><path d="M4.42,11.28A2.28,2.28,0,1,1,6.69,9,2.28,2.28,0,0,1,4.42,11.28ZM4.42,8a.93.93,0,0,0-1,1,.93.93,0,0,0,1,1,.92.92,0,0,0,1-1,.91.91,0,0,0-1-1Z"/><path d="M4.42,11.18A2.18,2.18,0,1,1,6.59,9,2.18,2.18,0,0,1,4.42,11.18Zm0-3.26A1,1,0,0,0,3.33,9a1,1,0,0,0,1.09,1.08A1,1,0,0,0,5.5,9,1,1,0,0,0,4.42,7.92Z"/><path d="M.62,16.72A.62.62,0,0,1,0,16.07V15a2.79,2.79,0,0,1,2.82-2.82H6.05a.62.62,0,0,1,.64.65.61.61,0,0,1-.64.64H2.79A1.57,1.57,0,0,0,1.26,15v1.08A.62.62,0,0,1,.62,16.72Z"/><path d="M.62,16.62a.52.52,0,0,1-.55-.55V15a2.7,2.7,0,0,1,2.72-2.72H6.05a.55.55,0,0,1,0,1.09H2.79A1.67,1.67,0,0,0,1.16,15v1.08A.52.52,0,0,1,.62,16.62Z"/><path d="M12.05,11.83A3.29,3.29,0,0,1,8.69,8.47,3.29,3.29,0,0,1,12.05,5.1a3.3,3.3,0,0,1,3.36,3.37A3.29,3.29,0,0,1,12.05,11.83Zm0-5.44a2.08,2.08,0,1,0,2.07,2.08A2.08,2.08,0,0,0,12.05,6.39Z"/><path d="M12.05,11.73A3.2,3.2,0,0,1,8.79,8.47a3.26,3.26,0,1,1,6.52,0A3.2,3.2,0,0,1,12.05,11.73Zm0-5.44a2.18,2.18,0,1,0,2.17,2.18A2.19,2.19,0,0,0,12.05,6.29Z"/><path d="M6.61,18.9A.62.62,0,0,1,6,18.25V16.07a2.79,2.79,0,0,1,2.82-2.81H15.3a2.79,2.79,0,0,1,2.82,2.81v2.18a.6.6,0,0,1-.63.64.62.62,0,0,1-.65-.64V16.07a1.57,1.57,0,0,0-1.53-1.53H8.79a1.58,1.58,0,0,0-1.54,1.53v2.18A.62.62,0,0,1,6.61,18.9Z"/><path d="M17.49,18.79a.52.52,0,0,1-.55-.54V16.07a1.67,1.67,0,0,0-1.63-1.63H8.79a1.67,1.67,0,0,0-1.64,1.63v2.18a.51.51,0,0,1-.54.55.52.52,0,0,1-.55-.55V16.07a2.69,2.69,0,0,1,2.72-2.71H15.3A2.69,2.69,0,0,1,18,16.07v2.18A.5.5,0,0,1,17.49,18.79Z"/></svg>