<svg id="Capa_1" data-name="Capa 1" xmlns="http://www.w3.org/2000/svg" viewBox="0 0 24 24"><title>user</title><path d="M12,11.56a5.62,5.62,0,0,0,4.09-1.69,5.62,5.62,0,0,0,1.69-4.09,5.62,5.62,0,0,0-1.69-4.09A5.62,5.62,0,0,0,12,0,5.62,5.62,0,0,0,7.91,1.69,5.62,5.62,0,0,0,6.22,5.78,5.62,5.62,0,0,0,7.91,9.87,5.62,5.62,0,0,0,12,11.56ZM8.91,2.69A4.17,4.17,0,0,1,12,1.41a4.17,4.17,0,0,1,3.09,1.28,4.17,4.17,0,0,1,1.28,3.09,4.17,4.17,0,0,1-1.28,3.09A4.14,4.14,0,0,1,12,10.15,4.14,4.14,0,0,1,8.91,8.87,4.17,4.17,0,0,1,7.63,5.78,4.17,4.17,0,0,1,8.91,2.69Z"/><path d="M22,18.45a13,13,0,0,0-.19-1.51,12.7,12.7,0,0,0-.37-1.53A8.1,8.1,0,0,0,20.77,14a5.37,5.37,0,0,0-.95-1.23,4.14,4.14,0,0,0-1.35-.85,4.68,4.68,0,0,0-1.74-.32,1.77,1.77,0,0,0-.94.4l-1,.63a5.59,5.59,0,0,1-1.26.56,4.93,4.93,0,0,1-3.1,0,5.69,5.69,0,0,1-1.27-.56l-1-.63a1.77,1.77,0,0,0-.94-.4,4.68,4.68,0,0,0-1.74.32,4.14,4.14,0,0,0-1.35.85A5.37,5.37,0,0,0,3.23,14a8.1,8.1,0,0,0-.63,1.42,12.7,12.7,0,0,0-.37,1.53A12.86,12.86,0,0,0,2,18.46c0,.45-.05.93-.05,1.41a4,4,0,0,0,1.18,3A4.26,4.26,0,0,0,6.22,24H17.78a4.26,4.26,0,0,0,3-1.11,4,4,0,0,0,1.18-3C22,19.39,22,18.91,22,18.45Zm-2.1,3.42a2.85,2.85,0,0,1-2.08.72H6.22a2.85,2.85,0,0,1-2.08-.72,2.62,2.62,0,0,1-.75-2c0-.45,0-.89,0-1.32a12.15,12.15,0,0,1,.18-1.36,9.56,9.56,0,0,1,.32-1.35,6.51,6.51,0,0,1,.51-1.15,3.91,3.91,0,0,1,.7-.91,2.89,2.89,0,0,1,.9-.57A3.22,3.22,0,0,1,7.16,13l.28.17,1,.64a7.23,7.23,0,0,0,1.59.71,6.29,6.29,0,0,0,4,0,7.23,7.23,0,0,0,1.59-.71l1-.64.28-.17a3.27,3.27,0,0,1,1.11.21,2.89,2.89,0,0,1,.9.57,3.91,3.91,0,0,1,.7.91,6.51,6.51,0,0,1,.51,1.15,9.56,9.56,0,0,1,.32,1.35,12.79,12.79,0,0,1,.18,1.36h0c0,.43.05.87.05,1.32A2.62,2.62,0,0,1,19.86,21.87Z"/></svg>