<svg id="Capa_1" data-name="Capa 1" xmlns="http://www.w3.org/2000/svg" viewBox="0 0 24 24"><title>video</title><path d="M23.75,5.79a.5.5,0,0,0-.5,0l-5.51,3V7A2.54,2.54,0,0,0,15.2,4.44H2.54A2.54,2.54,0,0,0,0,7V17a2.54,2.54,0,0,0,2.54,2.54H15.2A2.54,2.54,0,0,0,17.74,17V15.25l5.51,3a.5.5,0,0,0,.5,0,.51.51,0,0,0,.25-.44V6.22A.48.48,0,0,0,23.75,5.79ZM16.72,17a1.52,1.52,0,0,1-1.52,1.52H2.54A1.52,1.52,0,0,1,1,17V7A1.52,1.52,0,0,1,2.54,5.46H15.2A1.52,1.52,0,0,1,16.72,7ZM23,17l-5.24-2.86V9.94L23,7.08Z"/></svg>