<svg id="Capa_1" data-name="Capa 1" xmlns="http://www.w3.org/2000/svg" xmlns:xlink="http://www.w3.org/1999/xlink" viewBox="0 0 40 40"><defs><style>.cls-1{fill:url(#linear-gradient);}.cls-2{fill:url(#linear-gradient-2);}.cls-3{fill:url(#linear-gradient-3);}.cls-4{opacity:0.1;}.cls-5{fill:#fff;}.cls-6{fill:url(#linear-gradient-4);}.cls-7{fill:url(#linear-gradient-5);}.cls-8{fill:url(#linear-gradient-6);}.cls-9{fill:url(#linear-gradient-7);}.cls-10{fill:url(#linear-gradient-8);}.cls-11{fill:url(#linear-gradient-9);}.cls-12{fill:url(#linear-gradient-10);}</style><linearGradient id="linear-gradient" x1="2.23" y1="-3.36" x2="39.16" y2="45.19" gradientTransform="translate(23.53 -8.06) rotate(52.16)" gradientUnits="userSpaceOnUse"><stop offset="0" stop-color="#fca622"/><stop offset="0.22" stop-color="#fdffc2"/><stop offset="0.28" stop-color="#fdef9f"/><stop offset="0.45" stop-color="#fbc137"/><stop offset="0.52" stop-color="#fbae0e"/><stop offset="0.82" stop-color="#fdd587"/><stop offset="0.89" stop-color="#fc9700"/><stop offset="1" stop-color="#fbae0e"/></linearGradient><linearGradient id="linear-gradient-2" x1="47.2" y1="40.2" x2="-16.99" y2="-7.48" gradientUnits="userSpaceOnUse"><stop offset="0" stop-color="#fbae0e"/><stop offset="0.22" stop-color="#fdffe5"/><stop offset="0.31" stop-color="#fce59f"/><stop offset="0.46" stop-color="#fbbe37"/><stop offset="0.52" stop-color="#fbae0e"/><stop offset="0.82" stop-color="#fdd587"/><stop offset="1" stop-color="#fbae0e"/></linearGradient><linearGradient id="linear-gradient-3" x1="31.62" y1="32.06" x2="7.9" y2="7.43" gradientTransform="translate(35.84 -3.43) rotate(79.06)" gradientUnits="userSpaceOnUse"><stop offset="0.53" stop-color="#1a1a1a"/><stop offset="1" stop-color="#333"/></linearGradient><linearGradient id="linear-gradient-4" x1="25.74" y1="14.88" x2="10.47" y2="23.11" gradientUnits="userSpaceOnUse"><stop offset="0" stop-color="#fcbc3a"/><stop offset="0.01" stop-color="#fcc047"/><stop offset="0.04" stop-color="#fcc962"/><stop offset="0.07" stop-color="#fdd178"/><stop offset="0.11" stop-color="#fdd689"/><stop offset="0.15" stop-color="#fdda94"/><stop offset="0.22" stop-color="#fddc9b"/><stop offset="0.4" stop-color="#fddd9d"/><stop offset="0.44" stop-color="#fdd586"/><stop offset="0.64" stop-color="#fbae0e"/><stop offset="0.65" stop-color="#fbb014"/><stop offset="0.69" stop-color="#fcbb37"/><stop offset="0.74" stop-color="#fcc554"/><stop offset="0.79" stop-color="#fdcc6b"/><stop offset="0.85" stop-color="#fdd17b"/><stop offset="0.91" stop-color="#fdd484"/><stop offset="1" stop-color="#fdd587"/></linearGradient><linearGradient id="linear-gradient-5" x1="28.1" y1="19.24" x2="12.82" y2="27.48" xlink:href="#linear-gradient-4"/><linearGradient id="linear-gradient-6" x1="29.19" y1="21.27" x2="13.92" y2="29.51" xlink:href="#linear-gradient-4"/><linearGradient id="linear-gradient-7" x1="16.18" y1="10.55" x2="23.67" y2="15.13" gradientUnits="userSpaceOnUse"><stop offset="0" stop-color="#fbae0e"/><stop offset="0.31" stop-color="#fddd9d"/><stop offset="0.5" stop-color="#fcbc37"/><stop offset="0.59" stop-color="#fbae0e"/><stop offset="0.81" stop-color="#fddb9a"/><stop offset="1" stop-color="#fbae0e"/></linearGradient><linearGradient id="linear-gradient-8" x1="14.85" y1="5.62" x2="24.67" y2="11.62" xlink:href="#linear-gradient-7"/><linearGradient id="linear-gradient-9" x1="-2922.38" y1="-2529.66" x2="-2924.89" y2="-2527.05" gradientTransform="matrix(-0.83, -0.56, 0.56, -0.83, -991.47, -3714.55)" gradientUnits="userSpaceOnUse"><stop offset="0" stop-color="#fbae0e"/><stop offset="0.22" stop-color="#fddd9d"/><stop offset="0.43" stop-color="#fcbc37"/><stop offset="0.52" stop-color="#fbae0e"/><stop offset="0.82" stop-color="#fdd587"/><stop offset="1" stop-color="#fbae0e"/></linearGradient><linearGradient id="linear-gradient-10" x1="-2948.03" y1="-2512.22" x2="-2950.54" y2="-2509.61" xlink:href="#linear-gradient-9"/></defs><title>vip</title><circle class="cls-1" cx="20" cy="20" r="20" transform="translate(-8.06 23.53) rotate(-52.16)"/><circle class="cls-2" cx="20" cy="20" r="18.72"/><circle class="cls-3" cx="20" cy="20" r="17.79" transform="translate(-3.43 35.84) rotate(-79.06)"/><path class="cls-4" d="M37.79,20A17.73,17.73,0,0,0,33.16,8c-3.06,16.8-20,21.35-27.48,22.55A17.8,17.8,0,0,0,37.79,20Z"/><path class="cls-5" d="M20,38.73A18.71,18.71,0,0,1,1.27,20,18.71,18.71,0,0,1,20,1.27,18.71,18.71,0,0,1,38.73,20,18.71,18.71,0,0,1,20,38.73ZM20,1.29A18.71,18.71,0,1,0,38.71,20,18.73,18.73,0,0,0,20,1.29Z"/><path class="cls-6" d="M18.25,16.77,13.53,29.54H11.88L7.25,16.77H8.91L12.45,26.9A6.1,6.1,0,0,1,12.71,28h0a5.6,5.6,0,0,1,.3-1.15l3.6-10.11Z"/><path class="cls-7" d="M21.59,29.54h-1.5V16.77h1.5Z"/><path class="cls-8" d="M26.44,24.72v4.82h-1.5V16.77h3.51a4.68,4.68,0,0,1,3.18,1,3.56,3.56,0,0,1,1.12,2.81,3.88,3.88,0,0,1-1.25,3,4.78,4.78,0,0,1-3.38,1.16Zm0-6.59v5.23H28a3.45,3.45,0,0,0,2.36-.71,2.49,2.49,0,0,0,.81-2c0-1.69-1-2.53-3-2.53Z"/><path class="cls-9" d="M24.62,12.15H15.27a.15.15,0,0,0,0,.3v1.12h9.35V12.45a.15.15,0,0,0,0-.3Z"/><path class="cls-10" d="M25.3,6.34a.53.53,0,0,0-.23,1c-.39.8-1.26,2.2-2.64,2.2S20.27,7.62,20,6.68a.53.53,0,0,0,.41-.52.53.53,0,1,0-1.05,0,.51.51,0,0,0,.39.51c-.27,1-1,2.88-2.14,2.88S15.47,8.11,15,7.31a.52.52,0,0,0,.24-.44.53.53,0,0,0-1.06,0,.53.53,0,0,0,.53.53h.06l.51,3.91a.16.16,0,0,0-.13.15.16.16,0,0,0,.13.16h9.35a.14.14,0,0,0,.12-.15.14.14,0,0,0-.12-.14l.61-3.92h.07a.53.53,0,0,0,.53-.53A.53.53,0,0,0,25.3,6.34Z"/><polygon class="cls-11" points="4.44 18.52 4.92 19.49 6 19.65 5.22 20.41 5.41 21.48 4.45 20.97 3.48 21.48 3.67 20.41 2.89 19.65 3.96 19.5 4.44 18.52"/><polygon class="cls-12" points="35.46 18.52 35.94 19.49 37.02 19.65 36.24 20.41 36.42 21.48 35.46 20.97 34.5 21.48 34.69 20.41 33.91 19.65 34.98 19.5 35.46 18.52"/></svg>